<?xml version="1.0" encoding="utf-8"?>
<!-- Generator: Adobe Illustrator 27.2.0, SVG Export Plug-In . SVG Version: 6.00 Build 0)  -->
<svg version="1.1" id="Layer_1" xmlns="http://www.w3.org/2000/svg" xmlns:xlink="http://www.w3.org/1999/xlink" x="0px" y="0px"
	 viewBox="0 0 1080 420.6" style="enable-background:new 0 0 1080 420.6;" xml:space="preserve">
<style type="text/css">
	.st0{fill:#FFFFFF;}
</style>
<g>
	<path class="st0" d="M718.2,65.1c10.2,0.6,20.4,1.3,30.6,2v323.5c0,2.9,1.7,5.1,3.9,4.9c9-0.9,17.9-1.8,26.9-2.7
		c2.1-0.2,3.9-2.7,3.9-5.6V69.8c10.2,0.9,20.4,1.8,30.5,2.7c2.1,0.2,3.9-1.9,3.9-4.7V37.1c0-2.8-1.7-5.3-3.9-5.5
		c-31.9-3.9-63.8-7.2-95.8-9.7c-2.1-0.2-3.9,2.1-3.9,5.1v32.6C714.3,62.5,716,65,718.2,65.1L718.2,65.1z"/>
	<path class="st0" d="M839.6,385.6c28.1-3.8,56.1-8.1,84.1-13c2.1-0.4,3.9-2.7,3.9-5.3v-27.9c0-2.5-1.7-4.4-3.9-4.1
		c-17.7,2.4-35.4,4.6-53.2,6.6v-114c15.2-0.2,30.5-0.5,45.6-0.8c2.1,0,3.9-2.1,3.9-4.7v-26.5c0-2.6-1.7-4.7-3.9-4.7
		c-15.2-0.3-30.4-0.6-45.6-0.9V78.5c17.8,2,35.5,4.3,53.2,6.6c2.1,0.3,3.9-1.5,3.9-4.1V53.1c0-2.5-1.7-4.9-3.9-5.3
		c-28-4.9-56-9.2-84.1-13c-2.1-0.3-3.9,1.7-3.9,4.5v341.8C835.8,383.8,837.5,385.8,839.6,385.6L839.6,385.6z"/>
	<path class="st0" d="M1034.5,214c-2.6,0-5.2,0-7.8,0v-3.8c16.1-3.6,24.2-12.5,24.2-26.8V106c0-21.3-16.6-35.8-50.8-43.3
		c-15.4-3.3-30.9-6.4-46.4-9.3c-2.1-0.4-3.8,1.3-3.8,3.8v306.3c0,2.5,1.7,4.2,3.8,3.8c9-1.7,17.9-3.4,26.9-5.2
		c2.1-0.4,3.8-2.7,3.8-5.1V232.4c11.2-0.3,22.4-0.7,33.5-1v118.5c0,2.3,1.7,3.7,3.8,3.2c0.9-0.2,1.8-0.4,2.7-0.6
		c15.2-3.5,27.6-19,27.6-34.2v-84.9C1052,221.4,1045.3,214,1034.5,214L1034.5,214z M984.4,94c5.2,0.8,10.4,1.7,15.7,2.5
		c13.9,2.3,16.7,4.1,16.7,10.9v82.8c0,6.5-2.1,8.2-16.7,8c-5.2-0.1-10.4-0.2-15.7-0.3V94z"/>
	<path class="st0" d="M676.8,192.6c-11.6-4.1-23.2-8.2-34.8-12.4c-5.7-2.2-5.7-4.4-5.7-5.7c0-36.9,0-73.8,0-110.7
		c0-2,0-7.2,11.9-6.8c12.8,0.5,17.6,5.6,17.6,18.8V154c0,3,1.7,5.5,3.9,5.5c9.3,0.1,18.6,0.3,27.8,0.5c2.1,0,3.9-2.3,3.9-5.3V77.4
		c0-17.9-4.8-33.1-13.8-44c-9.4-11.3-22.8-17.7-39.9-18.5c-30.5-1.4-47.3,16.3-47.3,48.9v111.3c0,24.5,8.9,39.8,27.1,46.7
		c12,4.4,24,8.8,36,13.2c2.9,1,6.4,3,6.4,6.6v111.5c0,4.2-1.9,8.3-15.9,8.9c-17.2,0.7-22.1-4.7-22.1-23.7v-85.5c0-3-1.7-5.5-3.9-5.5
		c-9.3,0.1-18.7,0.1-28,0.2c-2.1,0-3.9,2.5-3.9,5.6v86c0,45,19.3,67.6,57.4,65.7c33.4-1.8,51.5-20.6,52.1-53.4c0-36.7,0-73.4,0-110
		c0-0.1,0-0.2,0-0.2c0-0.5,0-1.1,0-1.6C705.6,215.1,695.9,199.3,676.8,192.6L676.8,192.6z"/>
	<path class="st0" d="M440.3,73.9c-0.5-9.6-1.9-17.7-4.5-24.8c-5.2-14.3-13.9-24-26.1-28.7c-9.6-3.7-19.4-2.8-28.6-1.5
		c-8.9,1.3-17.2,5.4-24.7,12.1c-8.9,8.1-14.9,19.2-17.9,33.1c-1.9,8.9-2.2,17.5-2.2,24c-0.1,21.1-0.1,222.3,0,244.7
		c0,7.2,0.3,16.6,2.7,26c5.1,20.5,16.4,34.3,33.5,40.7c5.4,2,10.7,2.5,15.9,3c0.9,0.1,1.8,0.2,2.6,0.2c0.4,0,0.9,0.1,1.3,0.1
		c10.5,0.7,19.9-2.2,28.1-8.9c9-7.3,15-18.1,17.8-31.9c1.5-7.3,2.1-15,2.1-25.2c0-45.6,0-202.7,0-249.6
		C440.5,83,440.5,78.4,440.3,73.9L440.3,73.9z M405.6,338.8c-0.1,11-4.2,17.5-12.1,19c-6.1,1.1-10.9,0.1-15-3.1
		c-3.5-2.7-5.5-6.7-6.3-12.1c-0.4-3-0.6-6.3-0.7-9.8c0-20.4,0-129.9,0-195.3c0-25.9,0-45,0-49.6c0-4.8,0.2-9.8,1.7-14
		c1.9-5.4,5.1-8.8,9.9-10.2c2-0.6,3.9-1,5.7-1.1c3.7-0.2,6.9,0.7,10,2.6c3.3,2.1,5.4,5.8,6.2,11.1c0.5,3,0.7,6.5,0.7,11
		C405.7,110.7,405.7,316.7,405.6,338.8L405.6,338.8z"/>
	<path class="st0" d="M316.6,80.5c-0.5-9.1-1.9-16.8-4.5-23.4c-5.2-13.3-13.9-22-26-25.7c-9.6-2.9-19.3-1.4-28.5,0.3
		c-8.9,1.7-17.1,6.1-24.5,12.7c-8.9,8-14.8,18.6-17.8,31.5c-1.9,8.2-2.1,16.2-2.2,22.2c-0.1,19.4-0.1,204.1,0,224.6
		c0,6.6,0.3,15.2,2.7,24c5.1,19.1,16.3,32.5,33.3,39.5c5.3,2.2,10.7,3,15.9,3.8c0.9,0.1,1.8,0.3,2.6,0.4c0.4,0.1,0.9,0.1,1.3,0.2
		c10.4,1.3,19.8-0.9,27.9-6.7c9-6.4,15-16.4,17.8-29.4c1.5-6.8,2.1-14.2,2.1-23.8c0-42.8,0-192.3,0-237.5
		C316.8,89.1,316.8,84.8,316.6,80.5L316.6,80.5z M282,331.2c-0.1,10.3-4.2,16.3-12,17.3c-6.1,0.8-10.8-0.4-15-3.6
		c-3.5-2.7-5.5-6.5-6.3-11.6c-0.4-2.8-0.6-5.9-0.6-9.2c0-18.8,0-119.2,0-179.1c0-25.3,0-44.2,0-48.6s0.2-9.1,1.7-13.1
		c1.9-5.1,5.1-8.4,9.8-10c2-0.7,3.9-1.1,5.7-1.3c3.7-0.4,6.9,0.3,10,2c3.3,1.9,5.3,5.2,6.2,10.1c0.5,2.8,0.7,6.1,0.7,10.3
		C282.2,116.7,282.1,310.4,282,331.2L282,331.2z"/>
	<path class="st0" d="M545.4,360.5C536.5,247,527.5,133.4,518.6,20c-0.2-2.8-1.9-4.9-3.9-4.9c-16.7,0.2-33.4,0.6-50.1,1.2
		c-2.1,0.1-3.9,2.6-3.9,5.7v376.7c0,3,1.7,5.6,3.9,5.7c8.1,0.3,16.1,0.5,24.2,0.7c2.1,0.1,3.9-2.4,3.9-5.4V58.3
		c9.7,115.4,19.4,231.3,29.1,347.3c0.1,0,0.2,0,0.2,0c17.2,0.2,34.3,0.2,51.5,0c2.2,0,3.9-2.5,3.9-5.6V20.8c0-3.1-1.7-5.6-3.9-5.6
		c-8.1-0.1-16.2-0.2-24.2-0.2c-2.2,0-3.9,2.5-3.9,5.5L545.4,360.5L545.4,360.5z"/>
	<path class="st0" d="M136.6,57.1c-7.3,90-14.6,177.8-21.9,263C107.3,231.5,99.9,145.4,92.5,62c0-0.1,0-0.2,0-0.2
		c-9.4,2-18.7,4-28,6.1c-15.3,3.5-27.6,19-27.6,34.2v216.5c0,15.3,12.3,30.7,27.6,34.3c2.1,0.5,3.8-1,3.8-3.2
		c0-85.1,0-170.1,0-255.2c7.8,85,15.5,173.1,23.3,264.1c0.1,0,0.2,0,0.2,0c15.2,3.2,30.5,6.2,45.8,9.1c0.1,0,0.2,0,0.2,0.1
		c7.8-93.5,15.6-189.6,23.4-288.2c0,96,0,192.1,0,288.2c0,2.5,1.7,4.9,3.9,5.3c8,1.4,16,2.8,24,4.1c2.1,0.3,3.9-1.5,3.9-4.1V47.9
		c0-2.6-1.7-4.5-3.9-4.1c-16.2,2.7-32.5,5.5-48.7,8.5C138.4,52.7,136.7,54.8,136.6,57.1L136.6,57.1z"/>
</g>
</svg>
