<?xml version="1.0" encoding="utf-8"?>
<!-- Generator: Adobe Illustrator 27.2.0, SVG Export Plug-In . SVG Version: 6.00 Build 0)  -->
<svg version="1.1" id="Camada_1" xmlns="http://www.w3.org/2000/svg" xmlns:xlink="http://www.w3.org/1999/xlink" x="0px" y="0px"
	 viewBox="0 0 1254.9 300.3" style="enable-background:new 0 0 1254.9 300.3;" xml:space="preserve">
<style type="text/css">
	.st0{fill:#FFFFFF;}
	.st1{fill:url(#SVGID_00000141425182515115505800000006027227497332587147_);}
	.st2{fill:url(#SVGID_00000042694796447472500690000002561511160665700237_);}
	.st3{fill:url(#SVGID_00000016775617408234759190000010150843111312245656_);}
	.st4{fill:url(#SVGID_00000090286785448110699180000008167237009289128593_);}
	.st5{fill:url(#SVGID_00000183225348163225284630000011144663823207835040_);}
	.st6{fill:url(#SVGID_00000044167156184592681860000014099795137568378279_);}
	.st7{fill:url(#SVGID_00000172414069991080745160000008053153184760152496_);}
</style>
<g>
	<path class="st0" d="M180.9,75v225.1h-11.3l-33.9-33.9l-56.5-56.5l-32.9-32.9L0,129.5v-28.8V79.1V74h11.3l122.3,122.3V75H180.9z
		 M0,176.8l47.3,47.3v76.1H0V176.8z M415.2,76.1v47.3H214.8V84.3V75L415.2,76.1L415.2,76.1z M262.1,252.8h152.1v47.3H214.8V261v-9.2
		v-95.6h47.3h132.6v47.3H262.1V252.8z M649.5,76.1v47.3h-78.1l0,0h-47.3l0,0h-75V76.1H649.5z M524.2,300.1V156.2h47.3v143.9
		L524.2,300.1L524.2,300.1z"/>
	<g>
		<g>
			
				<linearGradient id="SVGID_00000085957867314817751260000002584689111719206543_" gradientUnits="userSpaceOnUse" x1="768.0864" y1="1482.4222" x2="636.7489" y2="1709.9067" gradientTransform="matrix(1 0 0 1 0 -1416)">
				<stop  offset="0" style="stop-color:#003441"/>
				<stop  offset="0.1815" style="stop-color:#004C54"/>
				<stop  offset="0.4176" style="stop-color:#016769"/>
				<stop  offset="0.4738" style="stop-color:#016D6D"/>
				<stop  offset="0.7347" style="stop-color:#01857F"/>
				<stop  offset="0.8957" style="stop-color:#018E85"/>
				<stop  offset="1" style="stop-color:#018E85"/>
			</linearGradient>
			<path id="SVGID_1_" style="fill:url(#SVGID_00000085957867314817751260000002584689111719206543_);" d="M647.5,76.1v8.2v39.1h110
				l0,0h8.2l0,0l0,0h1c9.2,0,16.4,7.2,16.4,16.4c0,9.2-7.2,16.4-16.4,16.4h-71.9l0,0h-47.3v143.9h47.3v-96.6h77.1c0,0,1,0,9.2-2.1
				c8.2-2.1,9.2-2.1,9.2-2.1c9.2-3.1,16.4-9.2,23.6-16.4c11.3-12.3,17.5-27.7,17.5-43.2c0-27.7-17.5-52.4-43.2-60.6
				c0,0-3.1-1-8.2-2.1s-9.2-1-9.2-1L647.5,76.1z"/>
		</g>
	</g>
	<g>
		<g>
			
				<linearGradient id="SVGID_00000139293931947038653620000002650392113401297303_" gradientUnits="userSpaceOnUse" x1="942.5981" y1="1508.8967" x2="833.3019" y2="1698.2032" gradientTransform="matrix(1 0 0 1 0 -1416)">
				<stop  offset="0" style="stop-color:#003441"/>
				<stop  offset="0.1815" style="stop-color:#004C54"/>
				<stop  offset="0.4176" style="stop-color:#016769"/>
				<stop  offset="0.4738" style="stop-color:#016D6D"/>
				<stop  offset="0.7347" style="stop-color:#01857F"/>
				<stop  offset="0.8957" style="stop-color:#018E85"/>
				<stop  offset="1" style="stop-color:#018E85"/>
			</linearGradient>
			
				<rect id="SVGID_00000005981116211193479670000003349778253014251678_" x="864.3" y="75" style="fill:url(#SVGID_00000139293931947038653620000002650392113401297303_);" width="47.3" height="225.1"/>
		</g>
	</g>
	<g>
		<g>
			
				<linearGradient id="SVGID_00000005965423182830733230000015089788112553358984_" gradientUnits="userSpaceOnUse" x1="1138.2855" y1="1473.4979" x2="985.0396" y2="1738.9281" gradientTransform="matrix(1 0 0 1 0 -1416)">
				<stop  offset="0" style="stop-color:#003441"/>
				<stop  offset="0.1815" style="stop-color:#004C54"/>
				<stop  offset="0.4176" style="stop-color:#016769"/>
				<stop  offset="0.4738" style="stop-color:#016D6D"/>
				<stop  offset="0.7347" style="stop-color:#01857F"/>
				<stop  offset="0.8957" style="stop-color:#018E85"/>
				<stop  offset="1" style="stop-color:#018E85"/>
			</linearGradient>
			
				<path id="SVGID_00000167378709254720384160000012600930950152371389_" style="fill:url(#SVGID_00000005965423182830733230000015089788112553358984_);" d="
				M956.8,285.7l-11.3,14.4h58.6l3.1-4.1l31.9-44.2l-29.8-40.1L956.8,285.7z M1111,75l-3.1,4.1l-47.3,64.7l-47.3-64.7l-3.1-4.1
				h-58.6L962,89.4l68.9,94.6l0,0l29.8,40.1l0,0l0,0l22.6,30.8l29.8,41.1l3.1,4.1h58.6l-10.3-14.4l-75-101.7l68.9-94.6l10.2-14.4
				H1111z"/>
		</g>
	</g>
	<g>
		<g>
			
				<linearGradient id="SVGID_00000147932980591620583030000007752451069434506123_" gradientUnits="userSpaceOnUse" x1="1252.3008" y1="1707.764" x2="1248.6562" y2="1714.0775" gradientTransform="matrix(1 0 0 1 0 -1416)">
				<stop  offset="0" style="stop-color:#003441"/>
				<stop  offset="0.1815" style="stop-color:#004C54"/>
				<stop  offset="0.4176" style="stop-color:#016769"/>
				<stop  offset="0.4738" style="stop-color:#016D6D"/>
				<stop  offset="0.7347" style="stop-color:#01857F"/>
				<stop  offset="0.8957" style="stop-color:#018E85"/>
				<stop  offset="1" style="stop-color:#018E85"/>
			</linearGradient>
			
				<path id="SVGID_00000023984644763853593270000013893260845729468808_" style="fill:url(#SVGID_00000147932980591620583030000007752451069434506123_);" d="
				M1247.7,291.9c-1,1-1,1-1,2.1c0,1,0,2.1,1,3.1s1,1,3.1,1c1,0,2.1,0,3.1-1s1-2.1,1-3.1s0-2.1-1-2.1c-1-1-2.1-1-3.1-1
				C1248.7,290.9,1248.7,291.9,1247.7,291.9"/>
		</g>
	</g>
	<g>
		<g>
			
				<linearGradient id="SVGID_00000067950994424401071230000004297753168439659949_" gradientUnits="userSpaceOnUse" x1="1248.1353" y1="1633.0844" x2="1230.243" y2="1664.0735" gradientTransform="matrix(1 0 0 1 0 -1416)">
				<stop  offset="0" style="stop-color:#003441"/>
				<stop  offset="0.1815" style="stop-color:#004C54"/>
				<stop  offset="0.4176" style="stop-color:#016769"/>
				<stop  offset="0.4738" style="stop-color:#016D6D"/>
				<stop  offset="0.7347" style="stop-color:#01857F"/>
				<stop  offset="0.8957" style="stop-color:#018E85"/>
				<stop  offset="1" style="stop-color:#018E85"/>
			</linearGradient>
			
				<path id="SVGID_00000048501187357331981370000001848967223063857814_" style="fill:url(#SVGID_00000067950994424401071230000004297753168439659949_);" d="
				M1227.1,230.2c0-2.1,0-3.1,1-4.1s2.1-2.1,3.1-2.1s2.1,1,3.1,2.1c1,1,1,3.1,1,4.1v8.2h-8.2V230.2z M1240.5,229.2
				c0-2.1,0-4.1,1-5.1s2.1-2.1,3.1-2.1c2.1,0,3.1,1,3.1,2.1c1,1,1,3.1,1,5.1v9.2h-9.2v-9.2H1240.5z M1240.5,217.9
				c-1,1-2.1,2.1-3.1,3.1v1c-1-1-1-2.1-2.1-3.1c-1-1-2.1-1-4.1-1s-4.1,1-6.2,3.1c-1,2.1-2.1,5.1-2.1,8.2v14.4h30.8v-15.4
				c0-4.1-1-7.2-2.1-9.2c-1-2.1-3.1-3.1-6.2-3.1C1243.6,216.9,1241.5,216.9,1240.5,217.9"/>
		</g>
	</g>
	<g>
		<g>
			
				<linearGradient id="SVGID_00000141446506946233108960000003767177212085031342_" gradientUnits="userSpaceOnUse" x1="1247.4729" y1="1558.6724" x2="1229.8828" y2="1589.1383" gradientTransform="matrix(1 0 0 1 0 -1416)">
				<stop  offset="0" style="stop-color:#003441"/>
				<stop  offset="0.1815" style="stop-color:#004C54"/>
				<stop  offset="0.4176" style="stop-color:#016769"/>
				<stop  offset="0.4738" style="stop-color:#016D6D"/>
				<stop  offset="0.7347" style="stop-color:#01857F"/>
				<stop  offset="0.8957" style="stop-color:#018E85"/>
				<stop  offset="1" style="stop-color:#018E85"/>
			</linearGradient>
			
				<polygon id="SVGID_00000024686387090371832360000001427737475054535053_" style="fill:url(#SVGID_00000141446506946233108960000003767177212085031342_);" points="
				1248.7,145.9 1248.7,163.4 1240.5,163.4 1240.5,149 1235.4,149 1235.4,163.4 1228.2,163.4 1228.2,147 1223,147 1223,169.6 
				1253.9,169.6 1253.9,145.9 			"/>
		</g>
	</g>
	<g>
		<g>
			
				<linearGradient id="SVGID_00000078737561767696675680000008872027306351629973_" gradientUnits="userSpaceOnUse" x1="1241.1646" y1="1492.9984" x2="1226.6639" y2="1518.1138" gradientTransform="matrix(1 0 0 1 0 -1416)">
				<stop  offset="0" style="stop-color:#003441"/>
				<stop  offset="0.1815" style="stop-color:#004C54"/>
				<stop  offset="0.4176" style="stop-color:#016769"/>
				<stop  offset="0.4738" style="stop-color:#016D6D"/>
				<stop  offset="0.7347" style="stop-color:#01857F"/>
				<stop  offset="0.8957" style="stop-color:#018E85"/>
				<stop  offset="1" style="stop-color:#018E85"/>
			</linearGradient>
			
				<polygon id="SVGID_00000010271194647977918080000007986776432294223745_" style="fill:url(#SVGID_00000078737561767696675680000008872027306351629973_);" points="
				1223,74 1223,99.7 1228.2,99.7 1228.2,89.4 1253.9,89.4 1253.9,84.3 1228.2,84.3 1228.2,74 			"/>
		</g>
	</g>
</g>
</svg>
