<?xml version="1.0" encoding="utf-8"?>
<!-- Generator: Adobe Illustrator 27.2.0, SVG Export Plug-In . SVG Version: 6.00 Build 0)  -->
<svg version="1.1" id="Camada_1" xmlns="http://www.w3.org/2000/svg" xmlns:xlink="http://www.w3.org/1999/xlink" x="0px" y="0px"
	 viewBox="0 0 1254.9 226.3" style="enable-background:new 0 0 1254.9 226.3;" xml:space="preserve">
<style type="text/css">
	.st0{fill:#FFFFFF;}
	.st1{fill:url(#SVGID_00000005238127156097134630000002316173133296562835_);}
	.st2{fill:url(#SVGID_00000103967941477653887840000014115216056175928501_);}
	.st3{fill:url(#SVGID_00000054258186969928796080000015669202205542153615_);}
	.st4{fill:url(#SVGID_00000166645758569540837620000005496175470300846985_);}
	.st5{fill:url(#SVGID_00000022538560644315956320000003675477606015227582_);}
	.st6{fill:url(#SVGID_00000018947866335646969520000006313155972804450210_);}
	.st7{fill:url(#SVGID_00000036222567646410214630000012263745744268063396_);}
</style>
<g>
	<path class="st0" d="M180.9,1v225.1h-11.3l-33.9-33.9l-56.5-56.5l-32.9-32.9L0,55.5V26.7V5.1V0h11.3l122.3,122.3V1H180.9z M0,102.8
		l47.3,47.3v76.1H0V102.8z M415.2,2.1v47.3H214.8V10.3V1L415.2,2.1L415.2,2.1z M262.1,178.8h152.1v47.3H214.8v-39.1v-9.2V82.2h47.3
		h132.6v47.3H262.1V178.8z M649.5,2.1v47.3h-78.1l0,0h-47.3l0,0h-75V2.1H649.5z M524.2,226.1V82.2h47.3v143.9H524.2z"/>
	<g>
		<g>
			
				<linearGradient id="SVGID_00000041984756121790665160000003255273923530938010_" gradientUnits="userSpaceOnUse" x1="768.1078" y1="31.5654" x2="636.7703" y2="-195.9191" gradientTransform="matrix(1 0 0 -1 0 24)">
				<stop  offset="0" style="stop-color:#003441"/>
				<stop  offset="0.1815" style="stop-color:#004C54"/>
				<stop  offset="0.4176" style="stop-color:#016769"/>
				<stop  offset="0.4738" style="stop-color:#016D6D"/>
				<stop  offset="0.7347" style="stop-color:#01857F"/>
				<stop  offset="0.8957" style="stop-color:#018E85"/>
				<stop  offset="1" style="stop-color:#018E85"/>
			</linearGradient>
			<path id="SVGID_1_" style="fill:url(#SVGID_00000041984756121790665160000003255273923530938010_);" d="M647.5,2.1v8.2v39.1h110
				l0,0h8.2l0,0l0,0h1c9.2,0,16.4,7.2,16.4,16.4s-7.2,16.4-16.4,16.4h-71.9l0,0h-47.3v143.9h47.3v-96.6h77.1c0,0,1,0,9.2-2.1
				c8.2-2.1,9.2-2.1,9.2-2.1c9.2-3.1,16.4-9.2,23.6-16.4c11.3-12.3,17.5-27.7,17.5-43.2c0-27.7-17.5-52.4-43.2-60.6
				c0,0-3.1-1-8.2-2.1s-9.2-1-9.2-1S647.5,2.1,647.5,2.1z"/>
		</g>
	</g>
	<g>
		<g>
			
				<linearGradient id="SVGID_00000085219384527449591400000008361487548998251667_" gradientUnits="userSpaceOnUse" x1="942.626" y1="5.073" x2="833.3444" y2="-184.2081" gradientTransform="matrix(1 0 0 -1 0 24)">
				<stop  offset="0" style="stop-color:#003441"/>
				<stop  offset="0.1815" style="stop-color:#004C54"/>
				<stop  offset="0.4176" style="stop-color:#016769"/>
				<stop  offset="0.4738" style="stop-color:#016D6D"/>
				<stop  offset="0.7347" style="stop-color:#01857F"/>
				<stop  offset="0.8957" style="stop-color:#018E85"/>
				<stop  offset="1" style="stop-color:#018E85"/>
			</linearGradient>
			
				<rect id="SVGID_00000005981116211193479670000003349778253014251678_" x="864.3" y="1" style="fill:url(#SVGID_00000085219384527449591400000008361487548998251667_);" width="47.3" height="225.1"/>
		</g>
	</g>
	<g>
		<g>
			
				<linearGradient id="SVGID_00000101815102541445304390000006497652227197998720_" gradientUnits="userSpaceOnUse" x1="1138.2858" y1="40.4532" x2="985.0676" y2="-224.9287" gradientTransform="matrix(1 0 0 -1 0 24)">
				<stop  offset="0" style="stop-color:#003441"/>
				<stop  offset="0.1815" style="stop-color:#004C54"/>
				<stop  offset="0.4176" style="stop-color:#016769"/>
				<stop  offset="0.4738" style="stop-color:#016D6D"/>
				<stop  offset="0.7347" style="stop-color:#01857F"/>
				<stop  offset="0.8957" style="stop-color:#018E85"/>
				<stop  offset="1" style="stop-color:#018E85"/>
			</linearGradient>
			
				<path id="SVGID_00000167378709254720384160000012600930950152371389_" style="fill:url(#SVGID_00000101815102541445304390000006497652227197998720_);" d="
				M956.8,211.7l-11.3,14.4h58.6l3.1-4.1l31.9-44.2l-29.8-40.1L956.8,211.7z M1111,1l-3.1,4.1l-47.3,64.7l-47.3-64.7l-3.1-4.1h-58.6
				L962,15.4l68.9,94.6l0,0l29.8,40.1l0,0l0,0l22.6,30.8l29.8,41.1l3.1,4.1h58.6l-10.3-14.4l-75-101.7l68.9-94.6L1168.6,1
				C1168.6,1,1111,1,1111,1z"/>
		</g>
	</g>
	<g>
		<g>
			
				<linearGradient id="SVGID_00000132067603988383733650000016501975227586852241_" gradientUnits="userSpaceOnUse" x1="1252.269" y1="-193.7457" x2="1248.6245" y2="-200.0592" gradientTransform="matrix(1 0 0 -1 0 24)">
				<stop  offset="0" style="stop-color:#003441"/>
				<stop  offset="0.1815" style="stop-color:#004C54"/>
				<stop  offset="0.4176" style="stop-color:#016769"/>
				<stop  offset="0.4738" style="stop-color:#016D6D"/>
				<stop  offset="0.7347" style="stop-color:#01857F"/>
				<stop  offset="0.8957" style="stop-color:#018E85"/>
				<stop  offset="1" style="stop-color:#018E85"/>
			</linearGradient>
			
				<path id="SVGID_00000023984644763853593270000013893260845729468808_" style="fill:url(#SVGID_00000132067603988383733650000016501975227586852241_);" d="
				M1247.7,217.9c-1,1-1,1-1,2.1c0,1,0,2.1,1,3.1c1,1,1,1,3.1,1c1,0,2.1,0,3.1-1c1-1,1-2.1,1-3.1c0-1,0-2.1-1-2.1c-1-1-2.1-1-3.1-1
				C1248.7,216.9,1248.7,217.9,1247.7,217.9"/>
		</g>
	</g>
	<g>
		<g>
			
				<linearGradient id="SVGID_00000007416946694728360830000008893808815535759292_" gradientUnits="userSpaceOnUse" x1="1248.2213" y1="-119.1341" x2="1230.3291" y2="-150.1232" gradientTransform="matrix(1 0 0 -1 0 24)">
				<stop  offset="0" style="stop-color:#003441"/>
				<stop  offset="0.1815" style="stop-color:#004C54"/>
				<stop  offset="0.4176" style="stop-color:#016769"/>
				<stop  offset="0.4738" style="stop-color:#016D6D"/>
				<stop  offset="0.7347" style="stop-color:#01857F"/>
				<stop  offset="0.8957" style="stop-color:#018E85"/>
				<stop  offset="1" style="stop-color:#018E85"/>
			</linearGradient>
			
				<path id="SVGID_00000048501187357331981370000001848967223063857814_" style="fill:url(#SVGID_00000007416946694728360830000008893808815535759292_);" d="
				M1227.1,156.2c0-2.1,0-3.1,1-4.1c1-1,2.1-2.1,3.1-2.1c1,0,2.1,1,3.1,2.1c1,1,1,3.1,1,4.1v8.2h-8.2V156.2z M1240.5,155.2
				c0-2.1,0-4.1,1-5.1s2.1-2.1,3.1-2.1c2.1,0,3.1,1,3.1,2.1c1,1,1,3.1,1,5.1v9.2h-9.2v-9.2H1240.5z M1240.5,143.9
				c-1,1-2.1,2.1-3.1,3.1v1c-1-1-1-2.1-2.1-3.1c-1-1-2.1-1-4.1-1s-4.1,1-6.2,3.1c-1,2.1-2.1,5.1-2.1,8.2v14.4h30.8v-15.4
				c0-4.1-1-7.2-2.1-9.2c-1-2.1-3.1-3.1-6.2-3.1C1243.6,142.9,1241.5,142.9,1240.5,143.9"/>
		</g>
	</g>
	<g>
		<g>
			
				<linearGradient id="SVGID_00000032623247799369071320000005717936926855241375_" gradientUnits="userSpaceOnUse" x1="1247.4639" y1="-44.6671" x2="1229.8738" y2="-75.133" gradientTransform="matrix(1 0 0 -1 0 24)">
				<stop  offset="0" style="stop-color:#003441"/>
				<stop  offset="0.1815" style="stop-color:#004C54"/>
				<stop  offset="0.4176" style="stop-color:#016769"/>
				<stop  offset="0.4738" style="stop-color:#016D6D"/>
				<stop  offset="0.7347" style="stop-color:#01857F"/>
				<stop  offset="0.8957" style="stop-color:#018E85"/>
				<stop  offset="1" style="stop-color:#018E85"/>
			</linearGradient>
			
				<polygon id="SVGID_00000024686387090371832360000001427737475054535053_" style="fill:url(#SVGID_00000032623247799369071320000005717936926855241375_);" points="
				1248.7,71.9 1248.7,89.4 1240.5,89.4 1240.5,75 1235.4,75 1235.4,89.4 1228.2,89.4 1228.2,73 1223,73 1223,95.6 1253.9,95.6 
				1253.9,71.9 			"/>
		</g>
	</g>
	<g>
		<g>
			
				<linearGradient id="SVGID_00000145028117000465152430000001119422339555073932_" gradientUnits="userSpaceOnUse" x1="1241.1692" y1="20.9989" x2="1226.6686" y2="-4.1165" gradientTransform="matrix(1 0 0 -1 0 24)">
				<stop  offset="0" style="stop-color:#003441"/>
				<stop  offset="0.1815" style="stop-color:#004C54"/>
				<stop  offset="0.4176" style="stop-color:#016769"/>
				<stop  offset="0.4738" style="stop-color:#016D6D"/>
				<stop  offset="0.7347" style="stop-color:#01857F"/>
				<stop  offset="0.8957" style="stop-color:#018E85"/>
				<stop  offset="1" style="stop-color:#018E85"/>
			</linearGradient>
			
				<polygon id="SVGID_00000010271194647977918080000007986776432294223745_" style="fill:url(#SVGID_00000145028117000465152430000001119422339555073932_);" points="
				1223,0 1223,25.7 1228.2,25.7 1228.2,15.4 1253.9,15.4 1253.9,10.3 1228.2,10.3 1228.2,0 			"/>
		</g>
	</g>
</g>
</svg>
